<?xml version="1.0" encoding="utf-8"?>
<!-- Generator: Adobe Illustrator 14.0.0, SVG Export Plug-In . SVG Version: 6.00 Build 43363)  -->
<!DOCTYPE svg PUBLIC "-//W3C//DTD SVG 1.1//EN" "http://www.w3.org/Graphics/SVG/1.1/DTD/svg11.dtd">
<svg version="1.1" id="Layer_1" xmlns="http://www.w3.org/2000/svg" xmlns:xlink="http://www.w3.org/1999/xlink" x="0px" y="0px"
	 width="256.353px" height="146px" viewBox="0 0 256.353 146" enable-background="new 0 0 256.353 146" xml:space="preserve">
<g>
	<rect x="28.745" y="36.604" fill-rule="evenodd" clip-rule="evenodd" fill="#FFFFFF" width="196.848" height="52.704"/>
	<path fill-rule="evenodd" clip-rule="evenodd" fill="#006EAA" d="M124.145,36.532h103.464v52.775H124.145V36.532L124.145,36.532z
		 M92.249,89.308h26.352c-4.32-4.896-12.816-7.271-26.352-8.207V89.308L92.249,89.308z M60.424,89.308h26.352
		c-4.32-4.896-12.816-7.271-26.352-8.207V89.308L60.424,89.308z M28.601,89.308h26.352c-4.32-4.896-12.816-7.271-26.352-8.207
		V89.308z"/>
	<path fill-rule="evenodd" clip-rule="evenodd" fill="#FFFFFF" d="M144.809,73.468l3.601-3.815c0.359,1.08,1.008,1.872,1.943,2.448
		c0.863,0.648,1.944,0.936,3.096,0.936c1.44,0,2.521-0.36,3.385-1.008c0.863-0.72,1.368-1.584,1.439-2.736
		c0.072-1.296-1.225-2.664-3.888-3.96c-0.864-0.432-1.584-0.792-2.088-1.08c-2.376-1.296-4.032-2.52-4.896-3.744
		c-0.864-1.296-1.296-2.736-1.151-4.464c0.071-2.304,1.151-4.248,3.096-5.688c1.944-1.512,4.392-2.304,7.271-2.304
		c1.729,0,3.24,0.288,4.393,0.936c1.224,0.576,2.304,1.512,3.168,2.808l-3.744,3.384c-0.432-0.792-0.936-1.44-1.584-1.8
		c-0.721-0.432-1.584-0.648-2.52-0.648c-1.225,0-2.232,0.288-2.953,0.936c-0.792,0.576-1.224,1.368-1.224,2.304
		c-0.144,1.512,1.296,2.88,4.104,4.104c0.577,0.288,1.009,0.432,1.297,0.576c2.304,1.08,4.031,2.376,5.112,3.744
		c1.079,1.368,1.584,2.952,1.439,4.68c-0.145,2.664-1.152,4.752-3.096,6.336c-1.872,1.584-4.32,2.376-7.416,2.376
		c-2.16,0-3.961-0.359-5.473-1.08C146.608,75.916,145.528,74.836,144.809,73.468L144.809,73.468z M180.521,53.884l-1.368,23.184
		h-6.048l1.368-23.184h-6.912l0.288-5.112h19.872l-0.288,5.112H180.521L180.521,53.884z M190.097,77.068l1.584-28.296h16.704
		l-0.288,5.112H197.44l-0.288,5.832h10.584l-0.288,5.112h-10.655l-0.648,12.24H190.097z"/>
	<path fill-rule="evenodd" clip-rule="evenodd" fill="#00A6E2" d="M92.249,36.604v42.409c19.296-2.305,27.792-14.544,28.728-33.984
		v-7.2c-0.072-0.432-0.072-0.792-0.072-1.224H92.249L92.249,36.604z M60.424,36.604v42.409c21.96-2.664,29.952-18.145,28.656-42.409
		H60.424L60.424,36.604z M28.672,36.604v42.409c21.96-2.664,29.88-18.145,28.584-42.409H28.672z"/>
	<path fill-rule="evenodd" clip-rule="evenodd" fill="#006EAA" d="M216.376,107.093v-1.656h1.368l-0.936-3.168
		c-0.072-0.072-0.072-0.217-0.072-0.504c-0.071-0.217-0.071-0.504-0.144-0.793c-0.072,0.289-0.145,0.576-0.217,0.864v0.072v-2.521
		h1.584l3.241,9.793h-2.449l-0.647-2.088H216.376L216.376,107.093z M222.209,109.181l0.575-9.793h2.088l-0.504,7.992h3.384
		l-0.144,1.801H222.209z M216.376,99.388v2.521c-0.071,0.216-0.144,0.36-0.144,0.433l-1.224,3.096h1.367v1.656h-2.087l-0.792,2.088
		h-2.232l4.319-9.793H216.376L216.376,99.388z M207.809,107.164v-3.672c0.288,0,0.576-0.144,0.72-0.216
		c0.288-0.217,0.432-0.504,0.504-0.936c0-0.505-0.144-0.865-0.432-1.08c-0.145-0.145-0.433-0.217-0.792-0.217v-1.656
		c1.08,0,1.943,0.217,2.521,0.648c0.575,0.504,0.791,1.225,0.791,2.088c-0.072,0.721-0.287,1.297-0.72,1.729
		c-0.432,0.504-1.008,0.791-1.656,0.863l2.448,4.465h-2.376L207.809,107.164z M207.809,99.388v1.656
		c-0.288-0.072-0.504-0.072-0.792-0.072h-0.36l-0.144,2.592h0.359c0.36,0,0.648,0,0.937-0.071v3.672l-1.296-2.592l-0.288,4.608
		h-2.088l0.575-9.793h2.953H207.809L207.809,99.388z M190.456,109.108v-1.801c0.504-0.144,1.008-0.359,1.296-0.647
		c0.577-0.504,0.864-1.296,0.937-2.376s-0.145-1.872-0.647-2.376c-0.36-0.36-0.864-0.647-1.585-0.72v-1.801
		c0.504,0.072,0.864,0.145,1.225,0.217c0.575,0.144,1.152,0.359,1.584,0.72c0.575,0.433,0.937,1.008,1.224,1.655
		c0.288,0.721,0.36,1.441,0.36,2.305c-0.072,0.864-0.288,1.656-0.647,2.305c-0.361,0.719-0.792,1.223-1.44,1.655
		c-0.432,0.36-1.009,0.576-1.512,0.72C191.032,109.036,190.744,109.036,190.456,109.108L190.456,109.108z M196.289,109.181
		l0.575-9.793h5.761l-0.072,1.729h-3.673l-0.144,2.016h3.673l-0.072,1.801h-3.672l-0.145,2.447h3.672l-0.145,1.801H196.289z
		 M190.456,99.388v1.801c-0.215,0-0.504,0-0.72,0h-1.224l-0.36,6.191h1.224c0.36,0,0.721,0,1.08-0.072v1.801
		c-0.504,0.072-1.008,0.072-1.655,0.072h-0.721h-2.087l0.575-9.793h2.664C189.665,99.388,190.097,99.388,190.456,99.388
		L190.456,99.388z M153.952,107.093v-1.656h1.368l-0.936-3.168c0-0.072,0-0.217-0.072-0.504c0-0.217-0.071-0.504-0.071-0.793
		c-0.073,0.289-0.145,0.576-0.217,0.864l-0.072,0.072v-2.521h1.584l3.24,9.793H156.4l-0.648-2.088H153.952L153.952,107.093z
		 M159.784,109.181l0.576-9.793h2.088l-0.432,7.992h3.313l-0.073,1.801H159.784L159.784,109.181z M170.801,109.181l0.504-9.793
		h5.832l-0.144,1.729h-3.673l-0.071,2.016h3.672l-0.145,1.801h-3.672l-0.216,4.248H170.801L170.801,109.181z M178.145,109.181
		l0.576-9.793h5.76l-0.071,1.729h-3.673l-0.144,2.016h3.672l-0.072,1.801h-3.672l-0.145,2.447h3.672l-0.144,1.801H178.145z
		 M153.952,99.388v2.521c0,0.216-0.072,0.36-0.072,0.433l-1.296,3.096h1.368v1.656h-2.016l-0.792,2.088h-2.231l4.247-9.793H153.952
		L153.952,99.388z M123.353,109.108v-1.584c0.36-0.072,0.576-0.145,0.792-0.36c0.288-0.216,0.432-0.504,0.432-1.008
		c0.072-0.36-0.072-0.72-0.288-0.937c-0.216-0.144-0.576-0.287-0.936-0.287v-1.656c0.36-0.072,0.648-0.145,0.792-0.217
		c0.288-0.215,0.432-0.504,0.504-0.936c0-0.432-0.144-0.72-0.36-0.863c-0.216-0.145-0.504-0.217-0.936-0.289v-1.584
		c0.432,0,0.792,0.072,1.008,0.072c0.432,0.072,0.864,0.217,1.152,0.36c0.36,0.288,0.648,0.504,0.792,0.864
		c0.216,0.359,0.288,0.791,0.288,1.224c-0.072,0.576-0.216,1.08-0.576,1.44c-0.432,0.359-0.936,0.576-1.584,0.647
		c0.72,0.144,1.368,0.433,1.728,0.792c0.36,0.432,0.576,0.936,0.504,1.584c0,0.504-0.144,0.936-0.432,1.296
		c-0.216,0.433-0.576,0.72-1.008,0.937c-0.36,0.216-0.792,0.359-1.296,0.432C123.785,109.108,123.568,109.108,123.353,109.108
		L123.353,109.108z M137.032,99.388l-0.36,6.049c-0.071,1.367-0.504,2.375-1.224,3.023s-1.8,1.008-3.24,1.008
		c-1.367,0-2.375-0.359-3.096-1.008c-0.648-0.648-0.936-1.656-0.864-3.023l0.36-6.049h2.088l-0.359,5.761
		c0,0.792,0.144,1.44,0.432,1.8c0.359,0.432,0.863,0.648,1.512,0.648c0.721,0,1.296-0.217,1.656-0.648
		c0.432-0.359,0.647-1.008,0.647-1.8l0.36-5.761H137.032L137.032,99.388z M138.616,109.181l0.576-9.793h2.16l4.032,5.688
		c0.071,0.144,0.216,0.36,0.359,0.647c0.145,0.36,0.288,0.648,0.36,1.08c0-0.287,0-0.576,0-0.863c0-0.288,0-0.648,0-1.08
		l0.288-5.473h2.017l-0.576,9.793h-2.017l-4.104-5.832c-0.144-0.145-0.287-0.36-0.359-0.648c-0.144-0.288-0.288-0.648-0.432-1.08
		c0,0.288,0.072,0.576,0.072,0.864s0,0.647-0.072,1.079l-0.289,5.617H138.616z M123.353,99.388v1.584c-0.144,0-0.216,0-0.36,0
		h-0.504l-0.144,2.305h0.432c0.216,0,0.432,0,0.576,0v1.656c-0.072,0-0.144,0-0.288,0h-0.792l-0.144,2.592h0.792
		c0.144,0,0.288,0,0.432,0v1.584c-0.504,0.072-1.08,0.072-1.872,0.072h-0.216h-1.368l0.576-9.793h1.872
		C122.705,99.388,123.064,99.388,123.353,99.388L123.353,99.388z M110.896,107.164v-3.672c0.36,0,0.576-0.144,0.792-0.216
		c0.288-0.217,0.432-0.504,0.432-0.936c0.072-0.505-0.072-0.865-0.36-1.08c-0.216-0.145-0.504-0.217-0.864-0.217v-1.656
		c1.152,0,2.016,0.217,2.52,0.648c0.576,0.504,0.864,1.225,0.792,2.088c-0.072,0.721-0.288,1.297-0.72,1.729
		c-0.432,0.504-0.936,0.791-1.584,0.863l2.448,4.465h-2.448L110.896,107.164L110.896,107.164z M115.577,109.181l0.576-9.793h2.088
		l-0.576,9.793H115.577z M110.896,99.388v1.656c-0.216-0.072-0.504-0.072-0.792-0.072h-0.288l-0.144,2.592h0.288
		c0.36,0,0.648,0,0.936-0.071v3.672l-1.296-2.592l-0.288,4.608h-2.088l0.576-9.793h3.024H110.896L110.896,99.388z M88.864,109.396
		v-1.799c0.864-0.072,1.512-0.36,2.088-0.937c0.648-0.647,0.936-1.44,1.008-2.376c0.072-0.936-0.216-1.729-0.72-2.305
		c-0.576-0.647-1.296-1.008-2.16-1.008c-0.072,0-0.144,0-0.216,0.072v-1.871c0.144,0,0.216,0,0.36,0
		c0.648,0,1.296,0.144,1.944,0.359c0.648,0.288,1.152,0.648,1.656,1.152c0.432,0.432,0.792,1.008,1.008,1.656
		c0.216,0.575,0.36,1.223,0.288,1.943c-0.072,0.721-0.216,1.368-0.504,2.016c-0.288,0.576-0.72,1.152-1.224,1.656
		c-0.504,0.432-1.152,0.864-1.8,1.08C90.017,109.252,89.44,109.396,88.864,109.396L88.864,109.396z M103.913,101.188l-0.432,7.992
		h-2.088l0.432-7.992h-2.376l0.072-1.801h6.912l-0.072,1.801H103.913z M88.864,99.173v1.871c-0.792,0-1.44,0.288-2.016,0.936
		c-0.648,0.576-1.008,1.369-1.008,2.305c-0.072,0.936,0.144,1.729,0.72,2.376c0.504,0.576,1.224,0.937,2.16,0.937
		c0.072,0,0.144,0,0.144,0v1.799c-0.072,0-0.144,0.072-0.288,0.072c-0.576,0-1.152-0.144-1.728-0.359
		c-0.576-0.217-1.08-0.504-1.512-0.864c-0.576-0.504-1.008-1.08-1.296-1.728c-0.288-0.721-0.432-1.44-0.36-2.232
		c0-0.721,0.216-1.368,0.504-1.943c0.288-0.648,0.72-1.225,1.224-1.656c0.504-0.504,1.08-0.864,1.728-1.152
		C87.712,99.316,88.289,99.173,88.864,99.173L88.864,99.173z M59.201,107.164v-3.672c0.288,0,0.576-0.144,0.72-0.216
		c0.288-0.217,0.432-0.504,0.504-0.936c0-0.505-0.144-0.865-0.432-1.08c-0.144-0.145-0.432-0.217-0.792-0.217v-1.656
		c1.08,0,1.944,0.217,2.52,0.648c0.576,0.504,0.792,1.225,0.792,2.088c-0.072,0.721-0.288,1.297-0.72,1.729
		c-0.432,0.504-1.008,0.791-1.656,0.863l2.448,4.465h-2.376L59.201,107.164L59.201,107.164z M63.809,109.181l0.576-9.793h5.76
		l-0.072,1.729H66.4l-0.144,2.016h3.672l-0.072,1.801h-3.672l-0.144,2.447h3.672l-0.144,1.801H63.809L63.809,109.181z
		 M70.792,109.181l2.016-9.793h2.232l1.584,5.761c0,0.144,0,0.288,0.072,0.504c0,0.288,0.072,0.504,0.072,0.792
		c0.072-0.288,0.144-0.576,0.144-0.792c0.072-0.216,0.144-0.433,0.216-0.504l2.232-5.761h2.16l0.936,9.793H80.44l-0.36-5.904
		c0-0.432-0.072-0.792-0.072-1.008c0-0.217,0-0.433,0.072-0.648c0-0.072,0-0.145,0-0.216c0,0,0-0.072,0-0.144
		c-0.072,0.432-0.144,0.719-0.216,1.008c-0.144,0.287-0.144,0.504-0.216,0.647l-2.448,6.265h-1.152l-1.728-6.265
		c0-0.071,0-0.216-0.072-0.504c-0.072-0.216-0.072-0.647-0.216-1.151v0.287c0,0.504-0.072,1.008-0.216,1.656v0.072l-1.008,5.904
		H70.792z M59.201,99.388v1.656c-0.288-0.072-0.504-0.072-0.792-0.072h-0.36l-0.144,2.592h0.36c0.36,0,0.648,0,0.936-0.071v3.672
		l-1.296-2.592l-0.288,4.608h-2.088l0.576-9.793h2.952H59.201L59.201,99.388z M51.353,105.437v-1.729
		c0.216-0.072,0.36-0.145,0.504-0.287c0.288-0.217,0.432-0.576,0.504-1.08c0-0.505-0.144-0.865-0.36-1.08
		c-0.144-0.145-0.36-0.217-0.648-0.289v-1.584c1.008,0.072,1.8,0.289,2.304,0.721c0.576,0.504,0.864,1.224,0.792,2.304
		c-0.072,0.937-0.432,1.656-1.08,2.231C52.864,105.076,52.145,105.364,51.353,105.437z M29.104,107.956l1.224-1.367
		c0.144,0.359,0.36,0.647,0.648,0.863s0.648,0.288,1.08,0.288c0.504,0,0.864-0.072,1.152-0.288c0.36-0.288,0.504-0.576,0.504-0.936
		c0-0.504-0.432-0.937-1.368-1.44c-0.288-0.144-0.504-0.216-0.648-0.36c-0.864-0.432-1.44-0.863-1.728-1.295
		c-0.288-0.433-0.432-0.937-0.432-1.513c0.072-0.792,0.432-1.44,1.08-2.017c0.648-0.504,1.512-0.719,2.52-0.719
		c0.648,0,1.152,0.071,1.512,0.287c0.432,0.217,0.792,0.504,1.08,0.936l-1.296,1.225c-0.072-0.288-0.288-0.504-0.504-0.648
		c-0.216-0.144-0.576-0.215-0.864-0.215c-0.432,0-0.792,0.144-1.008,0.287c-0.288,0.217-0.432,0.504-0.432,0.864
		c-0.072,0.504,0.432,0.937,1.368,1.368c0.216,0.072,0.36,0.145,0.504,0.216c0.792,0.36,1.368,0.792,1.728,1.296
		c0.36,0.504,0.576,1.008,0.504,1.656c0,0.863-0.36,1.656-1.08,2.16c-0.648,0.576-1.512,0.863-2.52,0.863
		c-0.792,0-1.44-0.144-1.944-0.432C29.681,108.82,29.32,108.388,29.104,107.956L29.104,107.956z M51.353,99.388v1.584
		c-0.216,0-0.36-0.071-0.576-0.071h-0.288l-0.144,2.88h0.288c0.216,0,0.504,0,0.72-0.072v1.729c-0.216,0-0.36,0-0.576,0h-0.576
		l-0.216,3.744h-2.088l0.576-9.793h2.376C50.993,99.388,51.208,99.388,51.353,99.388L51.353,99.388z M46.313,99.388l-0.36,6.049
		c-0.072,1.367-0.504,2.375-1.224,3.023s-1.8,1.008-3.24,1.008c-1.44,0-2.448-0.359-3.168-1.008
		c-0.648-0.648-0.936-1.656-0.864-3.023l0.36-6.049h2.088l-0.36,5.761c0,0.792,0.144,1.44,0.432,1.8
		c0.36,0.432,0.864,0.648,1.584,0.648c0.72,0,1.296-0.217,1.656-0.648c0.36-0.359,0.648-1.008,0.648-1.8l0.36-5.761H46.313z"/>
</g>
</svg>
